<?xml version="1.0" encoding="utf-8"?><!-- Generator: Adobe Illustrator 16.0.0, SVG Export Plug-In . SVG Version: 6.00 Build 0)  --><!DOCTYPE svg PUBLIC "-//W3C//DTD SVG 1.1//EN" "http://www.w3.org/Graphics/SVG/1.1/DTD/svg11.dtd" []><svg xmlns="http://www.w3.org/2000/svg" xmlns:xlink="http://www.w3.org/1999/xlink" version="1.1" id="Layer_1" x="0px" y="0px" width="680.859px" height="100px" viewBox="0 0 680.859 100" enable-background="new 0 0 680.859 100" xml:space="preserve">
<g id="change1">
	<path fill="#6F6F6F" d="M188.965,0c27.612,0,50,22.388,50,50s-22.388,50-50,50c-27.625,0-50-22.388-50-50S161.34,0,188.965,0z"/>
</g>
<g id="change3">
	<path fill="#D7D7D7" d="M340.418,12.5c20.715,0,37.5,16.791,37.5,37.5c0,20.703-16.785,37.5-37.5,37.5   c-20.703,0-37.5-16.797-37.5-37.5C302.918,29.291,319.715,12.5,340.418,12.5z"/>
</g>
<g id="change2">
	<path fill="#B6B7B7" d="M37.5,12.5C58.203,12.5,75,29.291,75,50c0,20.703-16.797,37.5-37.5,37.5C16.785,87.5,0,70.703,0,50   C0,29.291,16.785,12.5,37.5,12.5z"/>
	<path fill="#B6B7B7" d="M491.895,12.5c20.715,0,37.5,16.791,37.5,37.5c0,20.703-16.785,37.5-37.5,37.5   c-20.703,0-37.5-16.797-37.5-37.5C454.395,29.291,471.192,12.5,491.895,12.5z"/>
	<path fill="#B6B7B7" d="M643.36,12.5c20.715,0,37.5,16.791,37.5,37.5c0,20.703-16.785,37.5-37.5,37.5s-37.5-16.797-37.5-37.5   C605.86,29.291,622.645,12.5,643.36,12.5z"/>
</g>
</svg>