<svg xmlns="http://www.w3.org/2000/svg" xmlns:xlink="http://www.w3.org/1999/xlink" version="1.1" id="Layer_1" x="0px" y="0px" width="350px" height="250.005px" viewBox="0 0 350 250.005" enable-background="new 0 0 350 250.005" xml:space="preserve" transform="rotate(0) scale(1, 1)">
<g id="change1">
	<path fill="#476f94" d="M181.67,181.692c-2.349,2.341-5.517,3.649-8.827,3.649c-3.332,0-6.5-1.309-8.842-3.649L1.223,18.886   C0.728,20.895,0,22.819,0,24.997v199.997c0,13.821,11.183,25.011,25.004,25.011h299.999c13.765,0,24.997-11.189,24.997-25.011   V24.997c0-3.438-0.729-6.713-1.967-9.662L181.67,181.692z"/>
	<path fill="#476f94" d="M172.843,155.181L327.5,0.503C326.63,0.41,325.886,0,325.003,0H25.004c-2.178,0-4.095,0.708-6.104,1.217   L172.843,155.181z"/>
</g>
</svg>